<svg width="119" height="26" viewBox="0 0 119 26" fill="none" xmlns="http://www.w3.org/2000/svg">
<g id="Group 3707">
<g id="Group 3703">
<circle id="Ellipse 14" cx="13" cy="13" r="13" fill="#F9F9F9"/>
<g id="Group">
<g id="Group_2">
<path id="Vector" d="M7.8 15.6182H6.63329C6.55345 15.6182 6.48555 15.6768 6.4731 15.7565L6.00122 18.7813C5.99184 18.8409 6.03756 18.8947 6.09744 18.8947H6.65444C6.73428 18.8947 6.80218 18.8361 6.81463 18.7562L6.9419 17.9404C6.95418 17.8606 7.02225 17.8019 7.10192 17.8019H7.47126C8.2398 17.8019 8.68336 17.4259 8.79919 16.6808C8.85139 16.3548 8.80141 16.0987 8.65043 15.9193C8.48461 15.7223 8.1905 15.6182 7.8 15.6182ZM7.9346 16.7229C7.8708 17.1462 7.55093 17.1462 7.24164 17.1462H7.06558L7.18909 16.3557C7.19643 16.3079 7.23737 16.2727 7.28514 16.2727H7.36583C7.57652 16.2727 7.77527 16.2727 7.87797 16.3941C7.93921 16.4666 7.95798 16.5742 7.9346 16.7229Z" fill="#253B80"/>
<path id="Vector_2" d="M11.2876 16.7086H10.7289C10.6813 16.7086 10.6401 16.7438 10.6328 16.7916L10.6081 16.9496L10.569 16.8923C10.4481 16.7149 10.1783 16.6555 9.90914 16.6555C9.29175 16.6555 8.76443 17.1283 8.66173 17.7915C8.60834 18.1223 8.68425 18.4386 8.86986 18.6592C9.04012 18.862 9.28373 18.9466 9.57358 18.9466C10.071 18.9466 10.3469 18.6232 10.3469 18.6232L10.322 18.7801C10.3126 18.8401 10.3583 18.8939 10.4179 18.8939H10.9211C11.0011 18.8939 11.0687 18.8353 11.0813 18.7554L11.3833 16.8221C11.3928 16.7626 11.3473 16.7086 11.2876 16.7086ZM10.5088 17.808C10.4549 18.1307 10.2015 18.3474 9.87843 18.3474C9.71619 18.3474 9.58654 18.2948 9.50329 18.1951C9.42072 18.0961 9.38933 17.9551 9.4156 17.7982C9.46593 17.4782 9.72353 17.2545 10.0417 17.2545C10.2003 17.2545 10.3293 17.3078 10.4143 17.4084C10.4994 17.51 10.5332 17.6518 10.5088 17.808Z" fill="#253B80"/>
<path id="Vector_3" d="M14.2632 16.7087H13.7018C13.6482 16.7087 13.5979 16.7356 13.5675 16.7807L12.7932 17.9339L12.465 16.8257C12.4443 16.7563 12.381 16.7087 12.3094 16.7087H11.7577C11.6906 16.7087 11.6441 16.775 11.6654 16.8388L12.2838 18.6736L11.7024 19.5034C11.6567 19.5688 11.7027 19.6586 11.7817 19.6586H12.3425C12.3957 19.6586 12.4455 19.6324 12.4757 19.5883L14.3431 16.8631C14.3878 16.7979 14.3419 16.7087 14.2632 16.7087Z" fill="#253B80"/>
<path id="Vector_4" d="M16.1218 15.6177H14.9549C14.8752 15.6177 14.8073 15.6763 14.7949 15.756L14.323 18.7808C14.3136 18.8404 14.3593 18.8943 14.4189 18.8943H15.0177C15.0733 18.8943 15.1209 18.8532 15.1296 18.7973L15.2635 17.9399C15.2758 17.8601 15.3439 17.8014 15.4235 17.8014H15.7927C16.5614 17.8014 17.0048 17.4254 17.1208 16.6803C17.1732 16.3543 17.1228 16.0982 16.9719 15.9188C16.8062 15.7219 16.5123 15.6177 16.1218 15.6177ZM16.2564 16.7224C16.1927 17.1457 15.8729 17.1457 15.5634 17.1457H15.3875L15.5112 16.3552C15.5185 16.3074 15.5592 16.2722 15.6071 16.2722H15.6878C15.8983 16.2722 16.0972 16.2722 16.1999 16.3937C16.2612 16.4661 16.2798 16.5737 16.2564 16.7224Z" fill="#179BD7"/>
<path id="Vector_5" d="M19.6091 16.7086H19.0507C19.0028 16.7086 18.962 16.7438 18.9549 16.7916L18.9301 16.9496L18.8909 16.8923C18.7699 16.7149 18.5004 16.6555 18.2312 16.6555C17.6138 16.6555 17.0867 17.1283 16.984 17.7915C16.9307 18.1223 17.0063 18.4386 17.1919 18.6592C17.3625 18.862 17.6058 18.9466 17.8956 18.9466C18.3931 18.9466 18.6689 18.6232 18.6689 18.6232L18.644 18.7801C18.6347 18.8401 18.6804 18.8939 18.7403 18.8939H19.2433C19.323 18.8939 19.3909 18.8353 19.4034 18.7554L19.7055 16.8221C19.7147 16.7626 19.669 16.7086 19.6091 16.7086ZM18.8303 17.808C18.7768 18.1307 18.5231 18.3474 18.2 18.3474C18.0381 18.3474 17.9081 18.2948 17.8248 18.1951C17.7423 18.0961 17.7112 17.9551 17.7371 17.7982C17.7878 17.4782 18.0451 17.2545 18.3632 17.2545C18.5219 17.2545 18.6509 17.3078 18.7358 17.4084C18.8213 17.51 18.8551 17.6518 18.8303 17.808Z" fill="#179BD7"/>
<path id="Vector_6" d="M20.2682 15.7006L19.7893 18.7807C19.7799 18.8404 19.8256 18.8942 19.8852 18.8942H20.3666C20.4466 18.8942 20.5145 18.8355 20.5268 18.7557L20.999 15.7311C21.0084 15.6714 20.9627 15.6174 20.9031 15.6174H20.3641C20.3165 15.6176 20.2755 15.6528 20.2682 15.7006Z" fill="#179BD7"/>
</g>
<g id="Group_3">
<path id="Vector_7" d="M12.4126 13.4086L12.5441 12.5645L12.2513 12.5576H10.853L11.8247 6.32836C11.8278 6.30955 11.8376 6.29202 11.8519 6.27957C11.8662 6.26712 11.8846 6.26025 11.9037 6.26025H14.2613C15.044 6.26025 15.5841 6.42492 15.8662 6.74994C15.9984 6.90242 16.0826 7.06175 16.1233 7.23709C16.166 7.42107 16.1668 7.64089 16.125 7.90898L16.122 7.92855V8.10034L16.2542 8.17606C16.3656 8.23578 16.4541 8.30414 16.5219 8.38241C16.635 8.51277 16.7082 8.67846 16.7391 8.87489C16.771 9.07692 16.7605 9.31732 16.7082 9.58948C16.6478 9.90256 16.5503 10.1752 16.4186 10.3983C16.2975 10.6039 16.1431 10.7744 15.9599 10.9066C15.785 11.0321 15.5771 11.1274 15.3421 11.1884C15.1144 11.2484 14.8547 11.2786 14.57 11.2786H14.3865C14.2553 11.2786 14.1278 11.3264 14.0278 11.412C13.9275 11.4994 13.8612 11.6189 13.8408 11.7495L13.827 11.8255L13.5947 13.3134L13.5842 13.368C13.5814 13.3853 13.5766 13.3939 13.5696 13.3998C13.5633 13.4051 13.5543 13.4086 13.5455 13.4086H12.4126Z" fill="#253B80"/>
<path id="Vector_8" d="M16.3792 7.94824C16.3722 7.99373 16.3642 8.04023 16.3551 8.08801C16.0442 9.70192 14.9805 10.2595 13.622 10.2595H12.9302C12.7641 10.2595 12.6241 10.3814 12.5982 10.5471L12.2441 12.8179L12.1438 13.4616C12.1269 13.5704 12.2099 13.6685 12.3185 13.6685H13.5453C13.6906 13.6685 13.814 13.5618 13.8369 13.4169L13.8489 13.3539L14.0799 11.8719L14.0947 11.7905C14.1174 11.6452 14.241 11.5384 14.3863 11.5384H14.5698C15.7584 11.5384 16.6889 11.0505 16.9609 9.63865C17.0745 9.04884 17.0157 8.55635 16.715 8.20999C16.6241 8.10554 16.5112 8.01889 16.3792 7.94824Z" fill="#179BD7"/>
<path id="Vector_9" d="M16.0544 7.81718C16.0069 7.8032 15.9579 7.79049 15.9076 7.77906C15.8571 7.76788 15.8053 7.75797 15.752 7.74932C15.5655 7.71883 15.3612 7.70435 15.1423 7.70435H13.2944C13.2489 7.70435 13.2056 7.71476 13.1669 7.73357C13.0817 7.77499 13.0184 7.85656 13.0031 7.95643L12.6099 10.4737L12.5986 10.5472C12.6245 10.3815 12.7645 10.2595 12.9307 10.2595H13.6224C14.9809 10.2595 16.0446 9.70173 16.3555 8.08807C16.3648 8.04029 16.3726 7.99379 16.3797 7.9483C16.301 7.90612 16.2158 7.87003 16.124 7.83928C16.1014 7.83166 16.078 7.82429 16.0544 7.81718Z" fill="#222D65"/>
<path id="Vector_10" d="M13.0029 7.95647C13.0182 7.8566 13.0816 7.77503 13.1668 7.73386C13.2057 7.71506 13.2487 7.70464 13.2942 7.70464H15.1421C15.361 7.70464 15.5654 7.71912 15.7519 7.74962C15.8052 7.75826 15.8569 7.76817 15.9075 7.77935C15.9577 7.79078 16.0067 7.80349 16.0542 7.81747C16.0779 7.82458 16.1012 7.83195 16.1241 7.83932C16.2159 7.87007 16.3011 7.90641 16.3797 7.94834C16.4722 7.35192 16.379 6.94583 16.06 6.57812C15.7084 6.17331 15.0737 6 14.2616 6H11.904C11.7381 6 11.5966 6.12198 11.571 6.28792L10.5889 12.5812C10.5696 12.7057 10.6646 12.818 10.7888 12.818H12.2443L12.6098 10.4738L13.0029 7.95647Z" fill="#253B80"/>
</g>
</g>
</g>
<g id="Group 3704">
<circle id="Ellipse 14_2" cx="44" cy="13" r="13" fill="#888888"/>
<path id="Path" d="M39.7408 10.7735C39.565 10.9762 39.2837 11.1361 39.0024 11.1132C38.9673 10.8392 39.105 10.548 39.2661 10.3682C39.4419 10.1598 39.7496 10.0114 39.9986 10C40.0279 10.2854 39.9137 10.5652 39.7408 10.7735ZM39.9957 11.1675C39.5884 11.1446 39.2397 11.393 39.0464 11.393C38.8501 11.393 38.5541 11.1789 38.2318 11.1846C37.8128 11.1903 37.4231 11.4215 37.2092 11.7897C36.7697 12.5262 37.095 13.6166 37.5198 14.216C37.7279 14.5128 37.9769 14.8382 38.3051 14.8268C38.6157 14.8154 38.7387 14.6299 39.1138 14.6299C39.4917 14.6299 39.6001 14.8268 39.9283 14.8211C40.2682 14.8154 40.4821 14.5243 40.6901 14.2274C40.9274 13.8906 41.0241 13.5623 41.03 13.5452C41.0241 13.5395 40.3737 13.2969 40.3678 12.5661C40.3619 11.9553 40.8806 11.6641 40.904 11.647C40.611 11.2245 40.1539 11.1789 39.9957 11.1675ZM42.3485 10.3397V14.7897H43.0576V13.2683H44.0391C44.9357 13.2683 45.5657 12.6689 45.5657 11.8011C45.5657 10.9334 44.9474 10.3397 44.0626 10.3397H42.3485ZM43.0576 10.922H43.875C44.4904 10.922 44.842 11.2417 44.842 11.804C44.842 12.3663 44.4904 12.6889 43.8721 12.6889H43.0576V10.922ZM46.8607 14.824C47.3061 14.824 47.7192 14.6042 47.9068 14.2559H47.9214V14.7897H48.5777V12.5747C48.5777 11.9324 48.0503 11.5186 47.2387 11.5186C46.4857 11.5186 45.929 11.9382 45.9085 12.5147H46.5472C46.6 12.2407 46.8607 12.0609 47.2182 12.0609C47.6518 12.0609 47.895 12.2578 47.895 12.6204V12.8658L47.0102 12.9172C46.1868 12.9657 45.7415 13.294 45.7415 13.8649C45.7415 14.4415 46.2015 14.824 46.8607 14.824ZM47.0512 14.2959C46.6732 14.2959 46.433 14.1189 46.433 13.8478C46.433 13.568 46.6644 13.4053 47.1069 13.3796L47.895 13.3311V13.5823C47.895 13.999 47.5317 14.2959 47.0512 14.2959ZM49.4538 16C50.1453 16 50.4705 15.7431 50.7547 14.9638L52 11.5614H51.2792L50.4442 14.1903H50.4295L49.5945 11.5614H48.8532L50.0545 14.8011L49.99 14.9981C49.8816 15.3321 49.7058 15.4605 49.3923 15.4605C49.3366 15.4605 49.2282 15.4548 49.1842 15.4491V15.9829C49.2253 15.9943 49.4011 16 49.4538 16Z" fill="white"/>
</g>
<g id="Group 3705">
<circle id="Ellipse 14_3" cx="75" cy="13" r="13" fill="#333333"/>
<g id="Group_4">
<g id="Group_5">
<path id="Vector_11" fill-rule="evenodd" clip-rule="evenodd" d="M77.2032 15.4229C76.1476 16.2225 74.6363 16.6473 73.3409 16.6473C71.5177 16.6473 69.8624 15.9476 68.6149 14.7731C68.519 14.6732 68.6149 14.5482 68.7109 14.6232C70.0543 15.4478 71.7336 15.9226 73.4368 15.9226C74.5883 15.9226 75.8837 15.6727 77.0592 15.148C77.2271 15.098 77.3711 15.2979 77.2032 15.4229Z" fill="#FF9201"/>
<path id="Vector_12" fill-rule="evenodd" clip-rule="evenodd" d="M77.6347 14.8983C77.4908 14.7233 76.7471 14.8233 76.4112 14.8483C76.3153 14.8733 76.2913 14.7733 76.3873 14.6984C76.987 14.2486 77.9706 14.3985 78.0905 14.5234C78.2105 14.6734 78.0665 15.6979 77.4908 16.1977C77.3948 16.2727 77.3228 16.2227 77.3708 16.1227C77.4668 15.8229 77.7547 15.0982 77.6347 14.8983Z" fill="#FF9201"/>
</g>
<path id="Vector_13" fill-rule="evenodd" clip-rule="evenodd" d="M76.4354 11.6246V11.1998C76.4354 11.1248 76.4834 11.0999 76.5314 11.0999H78.3546C78.4026 11.0999 78.4506 11.1498 78.4506 11.1998V11.5746C78.4506 11.6246 78.4026 11.7246 78.3066 11.8495L77.347 13.2739C77.7069 13.2739 78.0667 13.3239 78.4026 13.4988C78.4746 13.5488 78.4985 13.5988 78.4985 13.6737V14.1235C78.4985 14.1735 78.4266 14.2485 78.3546 14.2235C77.7789 13.9236 77.0352 13.8736 76.4115 14.2235C76.3395 14.2485 76.2915 14.1985 76.2915 14.1235V13.6737C76.2915 13.5988 76.2915 13.4988 76.3635 13.3739L77.467 11.7246H76.5074C76.4834 11.7246 76.4354 11.6746 76.4354 11.6246Z" fill="white"/>
<path id="Vector_14" fill-rule="evenodd" clip-rule="evenodd" d="M69.7424 14.2736H69.1907C69.1427 14.2736 69.0947 14.2236 69.0947 14.1737V11.2C69.0947 11.15 69.1427 11.1 69.1907 11.1H69.7185C69.7664 11.1 69.8144 11.15 69.8144 11.2V11.5998C69.9583 11.225 70.1982 11.05 70.5581 11.05C70.9179 11.05 71.1338 11.225 71.2778 11.5998C71.4217 11.225 71.7096 11.05 72.0454 11.05C72.2853 11.05 72.5252 11.15 72.6931 11.3749C72.8611 11.6248 72.8371 11.9996 72.8371 12.2995V14.1737C72.8371 14.2236 72.7891 14.2736 72.7411 14.2736H72.1894C72.1414 14.2736 72.0934 14.2236 72.0934 14.1737V12.5994C72.0934 12.4744 72.0934 12.1496 72.0694 12.0496C72.0214 11.8497 71.9015 11.7997 71.7336 11.7997C71.5896 11.7997 71.4457 11.8997 71.3977 12.0496C71.3497 12.1995 71.3497 12.4494 71.3497 12.6244V14.1987C71.3497 14.2486 71.3018 14.2986 71.2538 14.2986H70.702C70.654 14.2986 70.6061 14.2486 70.6061 14.1987V12.6244C70.6061 12.2995 70.654 11.7997 70.2702 11.7997C69.8624 11.7997 69.8864 12.2745 69.8864 12.6244V14.1987C69.8384 14.2236 69.7904 14.2736 69.7424 14.2736Z" fill="white"/>
<path id="Vector_15" fill-rule="evenodd" clip-rule="evenodd" d="M80.0579 11.0249C80.8976 11.0249 81.3294 11.7746 81.3294 12.6992C81.3294 13.5988 80.8256 14.3234 80.0579 14.3234C79.2423 14.3234 78.8105 13.5738 78.8105 12.6492C78.7865 11.7496 79.2423 11.0249 80.0579 11.0249ZM80.0579 11.6496C79.6501 11.6496 79.6261 12.2244 79.6261 12.5992C79.6261 12.974 79.6261 13.7487 80.0579 13.7487C80.4897 13.7487 80.5137 13.124 80.5137 12.7491C80.5137 12.4993 80.5137 12.1994 80.4418 11.9495C80.3698 11.7246 80.2258 11.6496 80.0579 11.6496Z" fill="white"/>
<path id="Vector_16" fill-rule="evenodd" clip-rule="evenodd" d="M82.4089 14.2735H81.8572C81.8092 14.2735 81.7612 14.2235 81.7612 14.1735V11.1998C81.7612 11.1499 81.8092 11.0999 81.8572 11.0999H82.3849C82.4329 11.0999 82.4809 11.1249 82.4809 11.1748V11.6246C82.6488 11.2248 82.8647 11.0249 83.2486 11.0249C83.4885 11.0249 83.7523 11.1249 83.8963 11.3748C84.0402 11.6246 84.0402 12.0245 84.0402 12.2993V14.1735C84.0402 14.2235 83.9922 14.2735 83.9443 14.2735H83.3925C83.3445 14.2735 83.2965 14.2235 83.2965 14.1735V12.5492C83.2965 12.2244 83.3445 11.7496 82.9367 11.7496C82.7928 11.7496 82.6728 11.8495 82.6248 11.9995C82.5529 12.1744 82.5289 12.3743 82.5289 12.5742V14.1735C82.5049 14.2235 82.4569 14.2735 82.4089 14.2735Z" fill="white"/>
<path id="Vector_17" fill-rule="evenodd" clip-rule="evenodd" d="M74.9721 12.8492C74.9721 13.0741 74.9721 13.274 74.8761 13.4739C74.7802 13.6488 74.6362 13.7488 74.4923 13.7488C74.2764 13.7488 74.1565 13.5739 74.1565 13.324C74.1565 12.8242 74.5883 12.7492 74.9961 12.7492V12.8492H74.9721ZM75.5239 14.2736C75.4759 14.2985 75.4279 14.2985 75.4039 14.2985C75.212 14.1486 75.188 14.0736 75.092 13.8987C74.7802 14.2236 74.5643 14.3235 74.1804 14.3235C73.7007 14.3235 73.3408 14.0237 73.3408 13.4239C73.3408 12.9491 73.5807 12.6243 73.9406 12.4743C74.2524 12.3244 74.6602 12.2994 74.9961 12.2744V12.1995C74.9961 12.0495 74.9961 11.8996 74.9241 11.7747C74.8522 11.6747 74.7322 11.6247 74.6123 11.6247C74.3964 11.6247 74.2044 11.7497 74.1565 11.9746C74.1565 12.0245 74.1085 12.0745 74.0605 12.0745L73.5087 12.0245C73.4608 12.0245 73.4128 11.9746 73.4368 11.8996C73.5567 11.2249 74.1565 11 74.6842 11C74.9481 11 75.308 11.075 75.5239 11.2999C75.7877 11.5747 75.7638 11.9246 75.7638 12.2994V13.199C75.7638 13.4739 75.8837 13.5989 75.9797 13.7488C76.0036 13.7988 76.0276 13.8737 75.9797 13.8987C75.8357 13.9987 75.6438 14.1736 75.5239 14.2736Z" fill="white"/>
<path id="Vector_18" fill-rule="evenodd" clip-rule="evenodd" d="M67.6553 12.8492C67.6553 13.0741 67.6553 13.274 67.5593 13.4739C67.4634 13.6488 67.3194 13.7488 67.1755 13.7488C66.9596 13.7488 66.8396 13.5739 66.8396 13.324C66.8396 12.8242 67.2714 12.7492 67.6793 12.7492V12.8492H67.6553ZM68.207 14.2736C68.159 14.2985 68.1111 14.2985 68.0631 14.2985C67.8712 14.1486 67.8472 14.0736 67.7512 13.8987C67.4394 14.2236 67.2235 14.3235 66.8396 14.3235C66.3598 14.3235 66 14.0237 66 13.4239C66 12.9491 66.2399 12.6243 66.5997 12.4743C66.9116 12.3244 67.3194 12.2994 67.6553 12.2744V12.1995C67.6553 12.0495 67.6553 11.8996 67.5833 11.7747C67.5113 11.6747 67.3914 11.6247 67.2714 11.6247C67.0555 11.6247 66.8636 11.7497 66.8156 11.9746C66.8156 12.0245 66.7677 12.0745 66.7197 12.0745L66.1679 12.0245C66.1199 12.0245 66.072 11.9746 66.096 11.8996C66.2159 11.2249 66.8156 11 67.3434 11C67.6073 11 67.9671 11.075 68.183 11.2999C68.4469 11.5747 68.4229 11.9246 68.4229 12.2994V13.199C68.4229 13.4739 68.5429 13.5989 68.6388 13.7488C68.6628 13.7988 68.6868 13.8737 68.6388 13.8987C68.5189 13.9987 68.327 14.1736 68.207 14.2736Z" fill="white"/>
</g>
</g>
<g id="Group 3706">
<circle id="Ellipse 14_4" cx="106" cy="13" r="13" fill="#5485EC"/>
<g id="Group_6">
<path id="Vector_19" d="M105.567 13.1382V15.0212H104.976V10.3712H106.543C106.73 10.3672 106.916 10.4008 107.09 10.4698C107.264 10.5389 107.423 10.6422 107.558 10.7737C107.694 10.8972 107.802 11.0487 107.875 11.218C107.948 11.3873 107.984 11.5704 107.982 11.7551C107.985 11.9407 107.95 12.1251 107.876 12.2954C107.803 12.4658 107.695 12.6181 107.558 12.742C107.284 13.0062 106.946 13.1381 106.543 13.1379H105.567V13.1382ZM105.567 10.9436V12.5669H106.558C106.666 12.5701 106.774 12.5504 106.875 12.509C106.976 12.4676 107.067 12.4054 107.142 12.3265C107.217 12.2526 107.277 12.1643 107.318 12.0667C107.359 11.9691 107.38 11.8642 107.38 11.7582C107.38 11.6523 107.359 11.5474 107.318 11.4498C107.277 11.3522 107.217 11.2639 107.142 11.19C107.068 11.1094 106.977 11.0456 106.876 11.0031C106.775 10.9606 106.667 10.9402 106.558 10.9433H105.567V10.9436Z" fill="white"/>
<path id="Vector_20" d="M109.343 11.7358C109.779 11.7358 110.124 11.8538 110.377 12.0898C110.63 12.3258 110.756 12.6493 110.756 13.0604V15.0212H110.19V14.5797H110.165C109.92 14.9433 109.595 15.1251 109.189 15.1251C108.842 15.1251 108.552 15.0212 108.319 14.8135C108.207 14.7181 108.117 14.5987 108.056 14.4639C107.996 14.3291 107.966 14.1823 107.968 14.0343C107.968 13.7051 108.091 13.4433 108.338 13.2489C108.584 13.0545 108.912 12.957 109.323 12.9565C109.674 12.9565 109.963 13.0214 110.19 13.1513V13.0148C110.191 12.9138 110.169 12.814 110.127 12.7226C110.085 12.6312 110.023 12.5503 109.946 12.486C109.79 12.3435 109.586 12.2658 109.376 12.2683C109.046 12.2683 108.785 12.409 108.592 12.6905L108.072 12.3592C108.358 11.9436 108.782 11.7358 109.343 11.7358ZM108.578 14.0473C108.578 14.1233 108.596 14.1984 108.63 14.2661C108.664 14.3339 108.713 14.3924 108.774 14.4369C108.905 14.5408 109.067 14.5959 109.233 14.5927C109.483 14.5923 109.722 14.492 109.898 14.3137C110.094 14.1275 110.192 13.9089 110.192 13.6581C110.007 13.5097 109.75 13.4355 109.421 13.4355C109.181 13.4355 108.981 13.494 108.821 13.611C108.659 13.7297 108.578 13.874 108.578 14.0473Z" fill="white"/>
<path id="Vector_21" d="M114 11.8396L112.027 16.4236H111.417L112.149 14.8197L110.852 11.8396H111.494L112.432 14.1251H112.445L113.357 11.8396H114Z" fill="white"/>
<g id="Group_7">
<path id="Vector_22" d="M103.18 12.7324C103.18 12.5503 103.165 12.3686 103.134 12.1892H100.643V13.2181H102.07C102.041 13.3824 101.979 13.539 101.888 13.6785C101.797 13.8181 101.68 13.9376 101.542 14.0299V14.6977H102.394C102.893 14.2328 103.18 13.5453 103.18 12.7324Z" fill="white"/>
<path id="Vector_23" d="M100.642 15.343C101.356 15.343 101.956 15.1062 102.394 14.6981L101.542 14.0303C101.305 14.1928 101 14.2855 100.642 14.2855C99.9533 14.2855 99.3684 13.8158 99.1592 13.1829H98.2817V13.8711C98.5017 14.3135 98.8389 14.6855 99.2557 14.9454C99.6726 15.2053 100.153 15.3429 100.642 15.343Z" fill="white"/>
<path id="Vector_24" d="M99.1588 13.1827C99.0482 12.851 99.0482 12.4918 99.1588 12.1602V11.4719H98.2813C98.0963 11.8441 98 12.2549 98 12.6714C98 13.088 98.0963 13.4988 98.2813 13.871L99.1588 13.1827Z" fill="white"/>
<path id="Vector_25" d="M100.642 11.0576C101.019 11.0514 101.383 11.1953 101.656 11.4583L102.41 10.6958C101.932 10.2417 101.298 9.99243 100.642 10.0002C100.153 10.0002 99.6726 10.1378 99.2557 10.3977C98.8389 10.6577 98.5017 11.0296 98.2817 11.472L99.1592 12.1603C99.3684 11.5273 99.9533 11.0576 100.642 11.0576Z" fill="white"/>
</g>
</g>
</g>
</g>
</svg>
